<svg width="202" height="46" viewBox="0 0 202 46" fill="none" xmlns="http://www.w3.org/2000/svg">
<g clip-path="url(#clip0_2_2)">
<path d="M25.873 26.47H27.047V10.488C27.0458 10.1832 26.9264 9.89068 26.714 9.67201L26.645 9.60001C26.5223 9.47298 26.3725 9.3752 26.2069 9.31392C26.0412 9.25264 25.8639 9.22943 25.688 9.24601C24.6158 9.36237 23.5774 9.69069 22.6332 10.2119C21.689 10.7331 20.8579 11.4368 20.188 12.282C18.7584 14.069 17.9875 16.2936 18.005 18.582V34.568C18.0049 34.8722 18.1224 35.1646 18.333 35.384L18.4 35.453C18.523 35.5802 18.6731 35.6781 18.8391 35.7394C19.0052 35.8006 19.1828 35.8238 19.359 35.807C20.4312 35.6907 21.4696 35.3623 22.4138 34.8411C23.358 34.3199 24.1892 33.6163 24.859 32.771C26.289 30.9842 27.0599 28.7595 27.042 26.471H24.699C24.7153 28.2192 24.1303 29.9198 23.042 31.288C22.5683 31.8928 21.9788 32.3972 21.308 32.7716C20.6371 33.1461 19.8984 33.3832 19.135 33.469L19.249 34.642L20.095 33.829L20.028 33.76L19.182 34.573H20.358V18.584C20.3399 16.8363 20.9248 15.1359 22.014 13.769C22.4865 13.1644 23.0748 12.66 23.7444 12.2852C24.414 11.9103 25.1515 11.6727 25.914 11.586L25.804 10.416L24.961 11.232L25.028 11.301L25.874 10.488H24.699V26.47H25.873Z" fill="#18314F"/>
<path d="M13.972 19.457V18.283H9.84101C9.51959 18.2841 9.20194 18.3523 8.90836 18.4832C8.61478 18.614 8.35173 18.8047 8.13601 19.043C7.71091 19.5115 7.47685 20.1224 7.48001 20.755V26.448C7.46617 28.7036 8.22807 30.8953 9.63801 32.656C10.9834 34.3518 12.9209 35.4754 15.061 35.801C15.1193 35.8094 15.1781 35.8134 15.237 35.813C15.4127 35.8125 15.5865 35.776 15.7475 35.7057C15.9085 35.6353 16.0533 35.5326 16.173 35.404C16.3928 35.1644 16.5148 34.8511 16.515 34.526V20.954C16.5192 20.2699 16.2662 19.6092 15.806 19.103C15.5742 18.8459 15.2912 18.6402 14.9752 18.4989C14.6592 18.3577 14.3171 18.2842 13.971 18.283V20.631L14.071 20.689C14.1351 20.7625 14.169 20.8575 14.166 20.955V34.526H15.222L14.446 33.807C14.2658 34.003 14.1658 34.2597 14.166 34.526H15.222L14.446 33.807L15.236 34.537V33.47C15.0879 33.4694 14.9412 33.4995 14.8052 33.5584C14.6693 33.6172 14.547 33.7036 14.446 33.812L15.236 34.542V34.549L15.386 33.479L15.241 33.47V34.549L15.391 33.479C13.8367 33.2385 12.4319 32.4164 11.461 31.179C10.3902 29.8362 9.81267 28.1665 9.82501 26.449V20.755C9.8226 20.7095 9.83762 20.6648 9.86701 20.63L9.87401 20.623L9.85601 20.598L9.86501 20.628H9.87401L9.85601 20.603L9.86501 20.633L9.84101 20.554V20.63H9.86601L9.84101 20.554V20.63H13.972V19.457Z" fill="#18314F"/>
<path d="M11.997 16.127V14.954C11.6084 14.9535 11.232 14.8183 10.9319 14.5715C10.6318 14.3246 10.4265 13.9814 10.3511 13.6002C10.2757 13.219 10.3347 12.8234 10.5181 12.4809C10.7016 12.1383 10.9981 11.8699 11.3572 11.7215C11.7163 11.573 12.1158 11.5536 12.4876 11.6666C12.8594 11.7796 13.1806 12.018 13.3963 12.3411C13.6121 12.6643 13.7092 13.0523 13.671 13.439C13.6328 13.8257 13.4618 14.1872 13.187 14.462C12.8711 14.777 12.4432 14.9539 11.997 14.954V17.302C12.7941 17.302 13.5732 17.0657 14.236 16.6228C14.8987 16.18 15.4152 15.5506 15.7202 14.8142C16.0253 14.0778 16.1051 13.2675 15.9496 12.4858C15.7941 11.704 15.4103 10.986 14.8467 10.4224C14.283 9.85876 13.565 9.47494 12.7832 9.31944C12.0015 9.16394 11.1912 9.24375 10.4548 9.54877C9.71841 9.85379 9.08901 10.3703 8.64619 11.0331C8.20337 11.6958 7.96701 12.4749 7.96701 13.272C7.96662 13.8013 8.07059 14.3256 8.27297 14.8147C8.47536 15.3038 8.77219 15.7482 9.14649 16.1225C9.52079 16.4968 9.96521 16.7937 10.4543 16.996C10.9435 17.1984 11.4677 17.3024 11.997 17.302V16.127Z" fill="#8BBEB2"/>
<path d="M31.088 25.598V26.772H35.222C35.5434 26.7709 35.8611 26.7027 36.1546 26.5718C36.4482 26.441 36.7113 26.2503 36.927 26.012C37.3521 25.5435 37.5862 24.9326 37.583 24.3V18.607C37.5957 16.3516 36.8339 14.1602 35.425 12.399C34.0786 10.7023 32.1395 9.57859 29.998 9.254C29.9383 9.24642 29.8782 9.24241 29.818 9.242C29.478 9.24359 29.1525 9.37998 28.9129 9.62126C28.6733 9.86253 28.5392 10.189 28.54 10.529V24.101C28.5358 24.7851 28.7889 25.4458 29.249 25.952C29.4808 26.2091 29.7638 26.4148 30.0798 26.5561C30.3958 26.6973 30.7379 26.7708 31.084 26.772V24.425L30.984 24.367C30.92 24.2935 30.886 24.1985 30.889 24.101V10.529H29.832L30.608 11.242C30.7884 11.0473 30.8884 10.7915 30.888 10.526H29.832L30.608 11.242L29.818 10.514V11.59C29.9666 11.59 30.1136 11.559 30.2496 11.4991C30.3856 11.4392 30.5077 11.3516 30.608 11.242L29.818 10.514V10.508L29.666 11.58L29.818 11.589V10.508L29.666 11.58C31.2203 11.8204 32.6251 12.6426 33.596 13.88C34.6668 15.2228 35.2443 16.8925 35.232 18.61V24.303C35.2344 24.3485 35.2194 24.3932 35.19 24.428L35.183 24.435L35.201 24.46L35.188 24.429H35.179L35.197 24.454L35.188 24.429L35.213 24.501V24.425H35.188L35.213 24.497V24.421H31.088V25.598Z" fill="#18314F"/>
<path d="M33.06 28.928V30.102C33.4486 30.1025 33.825 30.2377 34.1251 30.4845C34.4252 30.7314 34.6305 31.0746 34.7059 31.4558C34.7814 31.837 34.7223 32.2326 34.5389 32.5751C34.3554 32.9177 34.0589 33.1861 33.6998 33.3345C33.3407 33.483 32.9412 33.5024 32.5694 33.3894C32.1976 33.2764 31.8765 33.038 31.6607 32.7149C31.4449 32.3917 31.3478 32.0037 31.386 31.617C31.4242 31.2303 31.5952 30.8688 31.87 30.594C32.1859 30.279 32.6139 30.1021 33.06 30.102V27.754C32.2629 27.754 31.4838 27.9904 30.8211 28.4332C30.1583 28.876 29.6418 29.5054 29.3368 30.2418C29.0317 30.9782 28.9519 31.7885 29.1074 32.5702C29.2629 33.352 29.6468 34.07 30.2104 34.6336C30.774 35.1972 31.492 35.5811 32.2738 35.7366C33.0555 35.8921 33.8658 35.8123 34.6022 35.5072C35.3386 35.2022 35.968 34.6857 36.4108 34.0229C36.8536 33.3602 37.09 32.5811 37.09 31.784C37.0904 31.2547 36.9864 30.7304 36.784 30.2413C36.5817 29.7522 36.2848 29.3078 35.9105 28.9335C35.5362 28.5592 35.0918 28.2623 34.6027 28.06C34.1136 27.8576 33.5893 27.7536 33.06 27.754V28.928Z" fill="#8BBEB2"/>
<path d="M122.058 19.884C122.28 19.621 122.469 19.376 122.675 19.147C123.554 18.1687 124.68 17.4454 125.935 17.0529C127.191 16.6605 128.528 16.6136 129.808 16.917C133.861 17.608 135.594 20.454 135.744 24.265C135.878 27.715 135.774 31.174 135.795 34.628C135.795 35.095 135.606 35.196 135.195 35.189C134.185 35.171 133.173 35.154 132.164 35.189C131.616 35.212 131.494 35 131.496 34.489C131.514 31.414 131.526 28.338 131.489 25.263C131.494 24.4858 131.381 23.7123 131.154 22.969C130.834 22.1868 130.248 21.5422 129.5 21.1483C128.752 20.7544 127.89 20.6362 127.063 20.8145C126.237 20.9928 125.5 21.4562 124.981 22.1234C124.462 22.7907 124.194 23.6192 124.225 24.464C124.163 26.696 124.195 28.93 124.19 31.164C124.19 32.301 124.169 33.44 124.199 34.577C124.211 35.055 124.044 35.199 123.577 35.185C122.588 35.157 121.597 35.146 120.608 35.185C120.056 35.208 119.889 35.044 119.894 34.485C119.919 31.368 119.938 28.249 119.882 25.132C119.867 24.2768 119.703 23.4308 119.397 22.632C118.854 21.239 117.35 20.58 115.597 20.802C114.91 20.8709 114.264 21.1621 113.758 21.6313C113.251 22.1005 112.911 22.7222 112.79 23.402C112.658 24.104 112.586 24.8159 112.575 25.53C112.552 28.52 112.552 31.5107 112.575 34.502C112.575 35.015 112.443 35.211 111.905 35.191C110.895 35.154 109.881 35.166 108.871 35.191C108.45 35.2 108.271 35.085 108.271 34.625C108.292 31.171 108.264 27.716 108.308 24.262C108.322 22.9934 108.612 21.7431 109.158 20.598C109.651 19.5413 110.419 18.6365 111.382 17.9781C112.344 17.3197 113.465 16.9318 114.629 16.855C115.952 16.6017 117.319 16.7256 118.574 17.2126C119.83 17.6996 120.923 18.5301 121.729 19.609C121.826 19.7107 121.932 19.8028 122.046 19.884" fill="#18314F"/>
<path d="M78.543 21.126C77.238 21.126 75.93 21.14 74.624 21.119C74.095 21.11 73.871 21.281 73.878 21.845C73.901 23.973 73.862 26.101 73.906 28.227C73.9126 28.8573 74.0325 29.4812 74.26 30.069C74.5453 30.6761 75.0346 31.1637 75.6426 31.447C76.2506 31.7302 76.9387 31.7911 77.587 31.619C78.232 31.5321 78.8246 31.217 79.2573 30.7309C79.6901 30.2448 79.9344 29.6197 79.946 28.969C80.038 27.855 80.038 27.855 81.154 27.855C82.016 27.855 82.88 27.862 83.744 27.855C84.07 27.855 84.257 27.943 84.257 28.317C84.266 30.831 83.575 33.047 81.357 34.479C79.5535 35.5741 77.4016 35.944 75.336 35.514C74.4756 35.4188 73.6438 35.1488 72.8916 34.7204C72.1395 34.292 71.4828 33.7144 70.962 33.023C70.096 31.8404 69.6291 30.4128 69.629 28.947C69.587 23.113 69.606 17.279 69.594 11.447C69.594 11.033 69.747 10.89 70.149 10.895C71.203 10.909 72.256 10.913 73.31 10.895C73.756 10.886 73.892 11.071 73.888 11.495C73.872 13.182 73.902 14.866 73.872 16.55C73.863 17.114 74.066 17.276 74.607 17.271C77.179 17.25 79.748 17.262 82.317 17.262C83.195 17.262 83.195 17.262 83.195 18.17C83.195 18.949 83.174 19.73 83.204 20.508C83.22 20.977 83.045 21.143 82.582 21.139C81.235 21.121 79.882 21.132 78.539 21.132L78.543 21.126Z" fill="#18314F"/>
<path d="M53.925 29.906C54.225 29.906 54.517 29.92 54.81 29.906C55.489 29.869 56.115 29.818 56.353 30.729C56.434 31.043 56.873 31.346 57.217 31.494C57.8803 31.7956 58.6016 31.9482 59.3302 31.9409C60.0587 31.9336 60.7769 31.7668 61.434 31.452C61.751 31.3245 62.0201 31.1007 62.2032 30.8123C62.3864 30.5238 62.4744 30.1852 62.455 29.844C62.4482 29.5213 62.3275 29.2115 62.1143 28.9692C61.9011 28.7269 61.6092 28.5678 61.29 28.52C60.082 28.257 58.855 28.069 57.632 27.864C56.3118 27.7127 55.041 27.2726 53.91 26.575C53.3915 26.2291 52.9616 25.7661 52.6551 25.2234C52.3485 24.6808 52.1737 24.0736 52.145 23.451C51.845 19.895 54.063 17.377 57.82 16.868C58.9223 16.6675 60.0533 16.6874 61.1479 16.9265C62.2424 17.1656 63.2787 17.6192 64.197 18.261C64.7773 18.6655 65.2651 19.1885 65.6283 19.7954C65.9915 20.4024 66.2218 21.0795 66.304 21.782C66.357 22.205 66.193 22.35 65.784 22.346C64.751 22.332 63.718 22.337 62.684 22.346C62.5292 22.3666 62.3722 22.3295 62.2431 22.2417C62.114 22.1538 62.0217 22.0215 61.984 21.87C61.8585 21.5667 61.6587 21.2999 61.4031 21.094C61.1474 20.8882 60.8441 20.7499 60.521 20.692C59.9898 20.5162 59.4273 20.4554 58.8708 20.5135C58.3142 20.5716 57.7764 20.7473 57.293 21.029C57.0103 21.1791 56.7789 21.4101 56.6282 21.6924C56.4775 21.9748 56.4144 22.2956 56.447 22.614C56.4711 22.9239 56.599 23.2167 56.81 23.445C57.0211 23.6732 57.3029 23.8237 57.61 23.872C58.881 24.149 60.177 24.313 61.443 24.611C62.45 24.813 63.4323 25.1228 64.373 25.535C67.134 26.864 67.296 30.156 66.101 32.358C65.6701 33.1222 65.0766 33.7823 64.3624 34.2918C63.6482 34.8012 62.8308 35.1474 61.968 35.306C60.6595 35.6887 59.2846 35.7885 57.9346 35.5989C56.5846 35.4092 55.2904 34.9344 54.138 34.206C53.5005 33.7907 52.9605 33.2424 52.5548 32.5987C52.1492 31.9551 51.8876 31.2313 51.788 30.477C51.719 30.052 51.864 29.895 52.282 29.906C52.83 29.924 53.382 29.906 53.925 29.906Z" fill="#18314F"/>
<path d="M170.968 29.906C171.268 29.906 171.559 29.92 171.853 29.906C172.532 29.869 173.11 29.834 173.413 30.717C173.554 31.131 174.187 31.475 174.67 31.653C175.734 32.0214 176.89 32.0313 177.96 31.681C178.387 31.5929 178.772 31.3643 179.053 31.0316C179.335 30.699 179.497 30.2815 179.513 29.846C179.469 29.107 178.864 28.546 177.861 28.365C176.782 28.176 175.698 28.032 174.619 27.852C173.319 27.7037 172.068 27.2689 170.957 26.579C170.438 26.2329 170.008 25.7699 169.701 25.2273C169.394 24.6848 169.219 24.0777 169.189 23.455C168.889 19.899 171.104 17.378 174.861 16.87C175.963 16.6696 177.094 16.6896 178.189 16.9287C179.283 17.1678 180.32 17.6213 181.238 18.263C181.819 18.6665 182.308 19.1889 182.671 19.7956C183.035 20.4023 183.266 21.0794 183.348 21.782C183.401 22.203 183.239 22.353 182.83 22.348C181.797 22.336 180.764 22.339 179.73 22.348C179.575 22.3689 179.419 22.3321 179.289 22.2447C179.16 22.1572 179.068 22.0253 179.03 21.874C178.904 21.5709 178.704 21.3042 178.449 21.0984C178.193 20.8926 177.89 20.7543 177.567 20.696C177.036 20.5193 176.474 20.4577 175.917 20.5155C175.36 20.5733 174.822 20.749 174.339 21.031C174.046 21.1846 173.808 21.4252 173.657 21.7198C173.506 22.0144 173.451 22.3485 173.498 22.676C173.534 22.9745 173.666 23.2533 173.874 23.4699C174.083 23.6865 174.356 23.8291 174.653 23.876C175.945 24.153 177.271 24.297 178.546 24.627C179.683 24.9005 180.787 25.2958 181.839 25.806C183.653 26.73 184.139 29.022 183.699 30.882C183.073 33.516 181.199 34.826 178.711 35.382C176.625 35.8893 174.432 35.7202 172.449 34.899C171.515 34.5557 170.69 33.9701 170.057 33.2023C169.424 32.4345 169.007 31.5122 168.849 30.53C168.761 30.042 168.911 29.871 169.392 29.895C169.919 29.918 170.446 29.895 170.972 29.895" fill="#18314F"/>
<path d="M188.151 29.907C188.468 29.907 188.784 29.925 189.098 29.907C189.775 29.856 190.298 29.879 190.598 30.718C190.746 31.134 191.372 31.476 191.855 31.656C192.919 32.0233 194.075 32.0331 195.145 31.684C195.571 31.5958 195.956 31.3679 196.238 31.0364C196.52 30.7049 196.683 30.2888 196.702 29.854C196.661 29.107 196.051 28.542 195.051 28.367C193.974 28.175 192.891 28.032 191.809 27.854C190.511 27.7034 189.262 27.2687 188.151 26.581C187.632 26.2354 187.201 25.7727 186.894 25.23C186.586 24.6873 186.411 24.08 186.381 23.457C186.074 19.901 188.292 17.38 192.049 16.872C193.151 16.671 194.282 16.6902 195.376 16.9286C196.471 17.167 197.507 17.6199 198.426 18.261C199.007 18.6645 199.495 19.1867 199.859 19.7929C200.223 20.3992 200.455 21.0758 200.538 21.778C200.593 22.196 200.438 22.353 200.025 22.349C198.992 22.335 197.959 22.34 196.925 22.349C196.77 22.3721 196.611 22.3368 196.481 22.2497C196.35 22.1627 196.256 22.0302 196.218 21.878C196.093 21.5743 195.894 21.3069 195.639 21.1005C195.384 20.8941 195.081 20.7553 194.758 20.697C194.227 20.5206 193.665 20.4591 193.108 20.5165C192.552 20.5739 192.014 20.749 191.53 21.03C191.237 21.1833 190.998 21.4238 190.847 21.7185C190.696 22.0131 190.64 22.3473 190.687 22.675C190.722 22.9734 190.854 23.2521 191.062 23.4687C191.27 23.6853 191.543 23.828 191.84 23.875C193.132 24.152 194.458 24.296 195.733 24.628C196.87 24.9025 197.974 25.2977 199.027 25.807C200.845 26.734 201.333 29.023 200.892 30.881C200.268 33.517 198.392 34.827 195.906 35.387C193.821 35.896 191.628 35.7286 189.644 34.909C188.709 34.5668 187.881 33.9817 187.247 33.2139C186.613 32.446 186.194 31.5231 186.035 30.54C185.95 30.057 186.09 29.879 186.576 29.902C187.103 29.925 187.63 29.902 188.156 29.902" fill="#18314F"/>
<path d="M139.752 22.313V10.248C139.752 9.402 139.752 9.4 140.591 9.4C141.474 9.4 142.361 9.435 143.244 9.386C143.886 9.351 144.069 9.578 144.067 10.213C144.046 16.592 144.055 22.974 144.055 29.354C144.055 31.059 144.037 32.767 144.064 34.472C144.073 35.022 143.895 35.216 143.341 35.195C142.394 35.156 141.441 35.153 140.499 35.195C139.914 35.223 139.739 35.022 139.741 34.442C139.762 30.401 139.753 26.357 139.753 22.314" fill="#18314F"/>
<path d="M103.862 20.576C101.085 16.622 95.281 15.731 91.133 17.933C89.8414 18.5929 88.7357 19.5657 87.9168 20.7628C87.0979 21.9599 86.5919 23.3431 86.445 24.786C86.2007 26.2029 86.2873 27.6571 86.6981 29.035C87.1089 30.4129 87.8327 31.6772 88.813 32.729C90.3787 34.4195 92.5344 35.4434 94.834 35.589C96.4164 35.8216 98.0319 35.6517 99.5313 35.0951C101.031 34.5384 102.366 33.6129 103.413 32.404C103.932 31.7161 104.405 30.9945 104.829 30.244C104.589 30.144 104.517 30.08 104.443 30.08C103.135 30.071 101.83 30.062 100.524 30.08C100.337 30.09 100.159 30.167 100.024 30.297C99.4981 30.7998 98.873 31.1873 98.1886 31.4344C97.5043 31.6815 96.7758 31.7829 96.05 31.732C95.0222 31.8068 93.9967 31.5577 93.1178 31.0196C92.2389 30.4815 91.5507 29.6815 91.15 28.732C90.785 27.891 90.887 27.727 91.783 27.727C95.237 27.727 98.6913 27.727 102.146 27.727C103.093 27.727 104.046 27.727 104.99 27.727C105.327 27.727 105.565 27.639 105.577 27.242C105.762 24.8941 105.159 22.5514 103.863 20.585L103.862 20.576ZM100.346 24.326C98.874 24.333 97.402 24.326 95.931 24.326C94.522 24.326 93.112 24.326 91.705 24.326C91.012 24.326 90.947 24.226 91.217 23.603C91.6279 22.6601 92.326 21.871 93.2118 21.3482C94.0977 20.8255 95.1259 20.5958 96.15 20.692C97.1351 20.653 98.1085 20.9172 98.9386 21.4491C99.7688 21.9809 100.416 22.7547 100.792 23.666C101.035 24.218 100.963 24.325 100.346 24.327" fill="#18314F"/>
<path d="M165.08 20.633C162.307 16.624 156.48 15.723 152.317 17.933C151.024 18.5907 149.917 19.5623 149.097 20.7587C148.278 21.9551 147.771 23.3381 147.624 24.781C147.378 26.1978 147.462 27.6525 147.872 29.0311C148.282 30.4096 149.005 31.6746 149.985 32.727C151.504 34.3682 153.584 35.3799 155.813 35.562C157.423 35.8276 159.074 35.6769 160.609 35.1241C162.144 34.5714 163.512 33.6349 164.583 32.404C165.108 31.7109 165.586 30.9829 166.013 30.225C165.868 30.1553 165.715 30.1026 165.558 30.068C164.273 30.061 162.989 30.054 161.704 30.068C161.517 30.0768 161.339 30.1532 161.204 30.283C160.68 30.7876 160.055 31.1764 159.371 31.4239C158.687 31.6715 157.958 31.7724 157.232 31.72C156.215 31.8007 155.198 31.5604 154.325 31.0328C153.451 30.5052 152.766 29.7169 152.364 28.779C151.943 27.871 152.043 27.712 153.02 27.712H162.69C163.827 27.712 164.964 27.712 166.103 27.712C166.443 27.712 166.743 27.684 166.757 27.231C166.943 24.9048 166.355 22.5823 165.084 20.625L165.08 20.633ZM161.423 24.319C159.993 24.319 158.563 24.319 157.132 24.319C155.681 24.319 154.232 24.31 152.781 24.319C152.259 24.326 152.146 24.132 152.351 23.667C152.727 22.7559 153.372 21.9813 154.201 21.447C155.029 20.9126 156.001 20.644 156.986 20.677C158.01 20.582 159.039 20.8107 159.926 21.331C160.814 21.8512 161.516 22.6368 161.933 23.577C162.219 24.236 162.166 24.316 161.422 24.319" fill="#18314F"/>
</g>
<defs>
<clipPath id="clip0_2_2">
<rect width="201.044" height="45.056" fill="white"/>
</clipPath>
</defs>
</svg>
